#!OML:ASF F:\VICON\USERDATA\INSTALL\rory3\rory3.ASF
:FULLY-SPECIFIED
:DEGREES
427
root -0.0336377 14.9604 -28.7734 -186.766 -28.2758 -158.51
lowerback -3.71516 3.04155 -0.0859536
upperback 0.266679 3.97323 2.30012
thorax 2.18404 1.95506 2.62694
lowerneck -19.8157 -2.99308 -1.80802
upperneck 40.7139 -10.0588 5.46792
head 19.5286 -4.5151 0.384778
rclavicle 2.06736e-014 -5.24792e-014
rhumerus -23.0641 3.93355 -68.1349
rradius 30.7699
rwrist -26.99
rhand -23.0311 11.7311
rfingers 7.12502
rthumb 3.41309 -18.2213
lclavicle 2.06736e-014 -5.24792e-014
lhumerus -49.6461 26.2784 60.2456
lradius 24.7678
lwrist 3.4419
lhand -10.9524 29.5088
lfingers 7.12502
lthumb 15.0663 58.9405
rfemur -60.1572 1.6593 13.2043
rtibia 62.058
rfoot -39.4325 -33.3304
rtoes 30.5504
lfemur -47.612 4.25078 -15.3201
ltibia 70.6242
lfoot -23.4329 12.4106
ltoes 8.79787
428
root -0.0107217 15.0107 -28.9042 -188.321 -29.1238 -158.155
lowerback -2.14744 2.8557 -0.0693325
upperback 0.368493 3.73513 2.50303
thorax 1.40842 1.84001 2.72661
lowerneck -18.5219 -3.06419 -1.32048
upperneck 40.4347 -10.4098 5.45379
head 18.9824 -4.65982 0.250207
rclavicle 5.28767e-014 0
rhumerus -21.544 6.2709 -71.1232
rradius 33.3268
rwrist -28.302
rhand -24.4312 12.6755
rfingers 7.12502
rthumb 2.06092 -17.2943
lclavicle 5.28767e-014 0
lhumerus -43.016 28.3409 63.7051
lradius 23.8317
lwrist 3.35288
lhand -12.533 28.1905
lfingers 7.12502
lthumb 13.5433 57.73
rfemur -60.8836 2.69624 8.66057
rtibia 56.7839
rfoot -47.2962 -26.6324
rtoes 44.7052
lfemur -45.5471 5.16936 -14.7877
ltibia 69.6863
lfoot -22.4619 10.696
ltoes 8.17678
429
root -0.0419116 15.2226 -28.9772 -189.606 -29.4267 -157.926
lowerback -2.02634 2.8191 -0.359826
upperback 0.953126 3.66721 2.85232
thorax 1.90343 1.78783 3.26037
lowerneck -18.6496 -3.03017 -1.8567
upperneck 40.3039 -10.065 5.52585
head 18.9536 -4.57229 0.457938
rclavicle 7.53394e-014 -1.09729e-013
rhumerus -19.2061 8.97058 -73.4684
rradius 35.6795
rwrist -29.442
rhand -25.3915 13.5587
rfingers 7.12502
rthumb 1.13348 -16.4181
lclavicle 7.53394e-014 -1.09729e-013
lhumerus -35.7694 22.0446 72.576
lradius 28.8517
lwrist 12.7622
lhand -15.1873 31.437
lfingers 7.12502
lthumb 10.9841 61.1296
rfemur -62.2218 1.88546 7.01614
rtibia 53.153
rfoot -41.8155 -33.7587
rtoes 37.2945
lfemur -42.4601 6.51275 -14.3754
ltibia 67.5936
lfoot -21.9793 8.56985
ltoes 9.6927
430
root -0.00433664 15.3205 -29.0148 -191.284 -31.0263 -157.441
lowerback -0.331228 2.34765 -0.588515
upperback 1.34389 3.03008 3.16701
thorax 1.36193 1.45954 3.62523
lowerneck -18.7244 -2.96637 -2.32662
upperneck 40.2648 -9.87195 5.81033
head 18.9955 -4.5201 0.718541
rclavicle -4.35338e-014 -5.56597e-014
rhumerus -16.3 11.7186 -75.1801
rradius 38.1681
rwrist -30.4941
rhand -24.2388 13.3492
rfingers 7.12502
rthumb 2.24671 -16.6187
lclavicle -4.35338e-014 -5.56597e-014
lhumerus -28.209 28.5815 74.52
lradius 27.0686
lwrist 6.94654
lhand -14.5878 29.0759
lfingers 7.12502
lthumb 11.5622 58.7369
rfemur -63.1688 2.2791 2.39622
rtibia 49.5628
rfoot -45.3406 -33.1536
rtoes 38.7098
lfemur -40.4317 6.70042 -13.9466
ltibia 66.0717
lfoot -20.4828 7.12189
ltoes 9.20578
431
root 0.0185749 15.435 -29.0439 -192.67 -32.0973 -157.045
lowerback 3.65318 2.5713 0.713312
upperback -0.613532 3.48887 2.18477
thorax -2.77097 1.73114 1.63631
lowerneck -16.6 -2.83253 -1.98334
upperneck 41.2659 -11.0327 6.95885
head 19.2478 -4.99575 0.9707
rclavicle -6.56983e-014 -3.33958e-014
rhumerus -17.7063 12.7187 -78.466
rradius 40.8285
rwrist -30.9345
rhand -23.695 16.3965
rfingers 7.12502
rthumb 2.77196 -13.5652
lclavicle -6.56983e-014 -3.33958e-014
lhumerus -24.8884 15.664 79.0296
lradius 32.0593
lwrist 16.0148
lhand -15.8986 29.3422
lfingers 7.12502
lthumb 10.2979 59.0701
rfemur -64.8163 3.96991 -3.42277
rtibia 47.1071
rfoot -44.3111 -35.8316
rtoes 36.7158
lfemur -38.4048 7.4406 -13.5606
ltibia 64.2129
lfoot -18.8433 5.24372
ltoes 11.1546
432
root 0.0325003 15.5535 -29.0946 -194.061 -33.1436 -156.659
lowerback 3.40721 2.20308 0.0264994
upperback 0.663417 2.91846 2.74873
thorax -1.36992 1.43709 2.67343
lowerneck -17.4928 -2.72906 -1.23535
upperneck 40.9601 -10.4376 6.02898
head 19.0916 -4.66454 0.517222
rclavicle -1.27222e-014 6.36111e-015
rhumerus -12.5969 15.642 -78.5916
rradius 42.7617
rwrist -29.3962
rhand -21.0928 15.3652
rfingers 7.12502
rthumb 5.28472 -14.5489
lclavicle -1.27222e-014 6.36111e-015
lhumerus -16.2888 15.9766 82.7996
lradius 32.7389
lwrist 14.0952
lhand -16.7327 29.3498
lfingers 7.12502
lthumb 9.49328 59.116
rfemur -66.2295 8.12253 -11.9708
rtibia 44.7305
rfoot -49.9822 -37.3027
rtoes 38.8373
lfemur -36.4403 8.35869 -13.151
ltibia 62.6865
lfoot -17.3414 3.66571
ltoes 10.5212
433
root 0.0538977 15.6915 -29.1155 -195.715 -34.3982 -156.225
lowerback 5.29465 2.02594 0.0993981
upperback 0.527074 2.71428 2.64276
thorax -2.54832 1.33793 2.4643
lowerneck -17.921 -2.42197 -1.73254
upperneck 41.6737 -10.4099 6.87061
head 19.8092 -4.63037 0.994902
rclavicle 1.02374e-014 -3.49861e-014
rhumerus -10.1953 18.8069 -79.5675
rradius 45.3765
rwrist -29.6385
rhand -20.0407 17.4411
rfingers 7.12502
rthumb 6.30052 -12.4452
lclavicle 1.02374e-014 -3.49861e-014
lhumerus -11.2398 9.25055 84.7813
lradius 35.6272
lwrist 16.0763
lhand -15.5048 28.268
lfingers 7.12502
lthumb 10.6778 57.9767
rfemur -67.9806 14.9139 -23.7803
rtibia 43.0101
rfoot -58.5219 -40.1563
rtoes 42.4075
lfemur -34.2989 9.00661 -12.7946
ltibia 61.0617
lfoot -15.7727 2.23426
ltoes 9.3516
434
root 0.0959705 15.7437 -29.1658 -197.002 -35.9724 -155.536
lowerback 7.05692 1.7587 0.443824
upperback -0.0119226 2.42815 2.51366
thorax -4.06164 1.19642 2.10061
lowerneck -17.238 -2.3333 -1.86279
upperneck 41.8913 -10.5154 7.20882
head 19.8174 -4.70731 1.17155
rclavicle -9.93923e-016 -2.70347e-014
rhumerus -7.74362 21.5031 -79.9187
rradius 48.0248
rwrist -28.8049
rhand -18.8183 18.3245
rfingers 7.12502
rthumb 7.48049 -11.5233
lclavicle -9.93923e-016 -2.70347e-014
lhumerus -5.19848 7.9715 86.1485
lradius 35.7156
lwrist 11.2452
lhand -14.0903 25.5006
lfingers 7.12502
lthumb 12.042 55.1342
rfemur -71.1096 22.0851 -38.9259
rtibia 41.2252
rfoot -71.9776 -38.1716
rtoes 47.9614
lfemur -33.3297 9.26591 -12.3136
ltibia 60.0753
lfoot -14.3525 0.518662
ltoes 10.8528
435
root 0.132175 15.8083 -29.1959 -198.201 -37.4783 -154.818
lowerback 8.6392 1.48538 0.812492
upperback -0.569435 2.14855 2.46565
thorax -5.51046 1.05047 1.83177
lowerneck -16.3096 -2.22546 -1.14319
upperneck 42.0737 -10.5221 6.76649
head 19.5701 -4.71531 0.845031
rclavicle 3.04638e-014 -5.24792e-014
rhumerus -4.79425 24.1348 -79.504
rradius 50.9387
rwrist -27.8674
rhand -16.0791 18.425
rfingers 7.12502
rthumb 10.1239 -11.3114
lclavicle 3.04638e-014 -5.24792e-014
lhumerus -0.539622 3.10305 86.6038
lradius 37.9053
lwrist 9.65757
lhand -17.7013 27.5477
lfingers 7.12502
lthumb 8.55856 57.3542
rfemur -74.7777 27.3886 -53.1606
rtibia 40.1907
rfoot -82.7889 -35.2379
rtoes 53.172
lfemur -32.42 9.47479 -11.9563
ltibia 59.0013
lfoot -12.9772 -0.839375
ltoes 10.3909
436
root 0.153333 15.8231 -29.2243 -199.676 -38.7693 -154.206
lowerback 10.6631 1.33792 1.78224
upperback -0.898671 2.12228 2.36194
thorax -6.96685 0.993675 1.13674
lowerneck -16.3032 -2.19139 -1.38791
upperneck 42.2611 -10.236 6.54171
head 19.654 -4.65588 0.847821
rclavicle 1.59028e-015 -5.725e-014
rhumerus -1.21742 25.6391 -78.2856
rradius 53.5029
rwrist -27.4877
rhand -14.4034 20.7182
rfingers 7.12502
rthumb 11.7401 -8.93282
lclavicle 1.59028e-015 -5.725e-014
lhumerus 4.9736 -0.0493819 87.2357
lradius 39.2332
lwrist 6.37129
lhand -14.1559 23.2687
lfingers 7.12502
lthumb 11.9788 52.9059
rfemur -77.2818 30.6434 -65.3658
rtibia 39.047
rfoot -92.0623 -25.5213
rtoes 55.8886
lfemur -31.309 9.44407 -11.7254
ltibia 58.3015
lfoot -12.1955 -1.69648
ltoes 8.11063
437
root 0.20368 15.9204 -29.2763 -201.17 -40.8242 -153.065
lowerback 11.8975 0.997697 1.7738
upperback -1.15566 1.73168 2.62196
thorax -7.95251 0.799467 1.46544
lowerneck -16.2506 -2.05986 -1.08784
upperneck 42.343 -9.89045 6.14865
head 19.5993 -4.50557 0.686251
rclavicle -2.88735e-014 -1.11319e-014
rhumerus 2.92378 27.9559 -76.1209
rradius 56.3725
rwrist -26.435
rhand -14.2651 21.5756
rfingers 7.12502
rthumb 11.8735 -8.06778
lclavicle -2.88735e-014 -1.11319e-014
lhumerus 9.9168 -3.78661 86.4954
lradius 41.3914
lwrist 1.76509
lhand -11.4348 20.8197
lfingers 7.12502
lthumb 14.6016 50.2857
rfemur -76.4826 30.7912 -70.4649
rtibia 38.6132
rfoot -94.2749 -22.7384
rtoes 56.593
lfemur -30.3949 9.09666 -11.1569
ltibia 57.2705
lfoot -11.0009 -3.38128
ltoes 7.7425
438
root 0.247164 15.9978 -29.3145 -202.803 -42.5563 -152.017
lowerback 13.2181 0.713769 2.04972
upperback -1.03764 1.44499 2.90405
thorax -8.57861 0.643093 1.65634
lowerneck -17.3001 -1.88923 -1.88939
upperneck 42.3951 -9.07581 6.12034
head 19.9131 -4.22231 0.98681
rclavicle -4.74598e-014 -3.81667e-014
rhumerus 8.54861 30.2652 -72.6279
rradius 59.0378
rwrist -27.1696
rhand -14.3256 22.0856
rfingers 7.12502
rthumb 11.8151 -7.56107
lclavicle -4.74598e-014 -3.81667e-014
lhumerus 15.648 -9.21708 84.2727
lradius 44.0111
lwrist 2.75179
lhand -19.6355 25.2985
lfingers 7.12502
lthumb 6.69167 55.1728
rfemur -73.6738 28.6781 -71.3688
rtibia 38.2044
rfoot -90.9131 -24.2728
rtoes 55.7962
lfemur -29.4095 8.68126 -10.6549
ltibia 56.3048
lfoot -9.69896 -4.81992
ltoes 8.45557
439
root 0.282425 16.0921 -29.3464 -204.726 -44.1116 -150.971
lowerback 15.0818 0.670382 2.69829
upperback -1.16354 1.57611 2.89019
thorax -9.77137 0.660226 1.23784
lowerneck -17.2803 -1.78442 -1.18376
upperneck 42.108 -8.54094 5.30604
head 19.5517 -3.95482 0.596304
rclavicle 1.16985e-013 -2.06736e-014
rhumerus 13.4476 31.1394 -69.1338
rradius 62.3991
rwrist -28.0989
rhand -14.1182 20.9174
rfingers 7.12502
rthumb 12.0151 -8.71776
lclavicle 1.16985e-013 -2.06736e-014
lhumerus 20.6081 -15.4106 80.0739
lradius 47.3976
lwrist 4.28317
lhand -26.5908 27.516
lfingers 7.12502
lthumb -0.0249164 57.4958
rfemur -70.3184 25.4627 -70.0804
rtibia 38.2694
rfoot -84.7044 -25.8878
rtoes 55.5069
lfemur -28.0716 8.13458 -10.1128
ltibia 55.1816
lfoot -8.18167 -6.03764
ltoes 10.3033
440
root 0.316878 16.2382 -29.4319 -206.733 -46.4714 -149.854
lowerback 16.75 0.267328 2.41186
upperback -1.20523 1.07766 3.15109
thorax -10.7883 0.435015 1.80858
lowerneck -18.2663 -1.36849 -1.96452
upperneck 42.2883 -7.32715 5.19522
head 19.8952 -3.54326 0.945244
rclavicle -3.90612e-014 1.59028e-015
rhumerus 18.962 31.8947 -65.4382
rradius 65.1542
rwrist -28.5841
rhand -14.8366 21.2613
rfingers 7.12502
rthumb 11.3224 -8.4131
lclavicle -3.90612e-014 1.59028e-015
lhumerus 26.1503 -17.4305 76.744
lradius 49.8708
lwrist 1.44445
lhand -27.4275 26.1557
lfingers 7.12502
lthumb -0.833008 56.1338
rfemur -66.315 22.0831 -68.5883
rtibia 38.5108
rfoot -77.6802 -27.7965
rtoes 55.2012
lfemur -26.6902 6.84408 -9.88769
ltibia 53.8924
lfoot -6.54299 -7.25336
ltoes 12.3497
441
root 0.334602 16.412 -29.4918 -209.035 -47.7266 -147.215
lowerback 16.7029 0.00571893 3.60344
upperback -0.827013 0.970259 3.89155
thorax -10.3358 0.321483 1.96829
lowerneck -18.8285 -0.929158 -1.73815
upperneck 41.2945 -5.56601 3.93096
head 19.1915 -2.86254 0.697142
rclavicle 2.28602e-014 6.99722e-014
rhumerus 25.6987 31.5859 -60.7898
rradius 67.719
rwrist -28.9302
rhand -15.8646 21.8249
rfingers 7.12502
rthumb 10.3308 -7.90134
lclavicle 2.28602e-014 6.99722e-014
lhumerus 32.733 -17.6979 73.2911
lradius 51.3971
lwrist -4.85013
lhand -22.7345 22.9936
lfingers 7.12502
lthumb 3.69948 52.9412
rfemur -63.6708 19.1703 -67.2832
rtibia 38.6869
rfoot -72.9529 -26.5213
rtoes 56.0962
lfemur -26.1754 5.77787 -8.25203
ltibia 52.5535
lfoot -4.80841 -8.10467
ltoes 13.6949
